<svg width="17" height="17" viewBox="0 0 17 17" fill="none" xmlns="http://www.w3.org/2000/svg">
  <path d="M15.1 0H1.9C.85 0 0 .85 0 1.9v13.2C0 16.15.85 17 1.9 17h13.2c1.05 0 1.9-.85 1.9-1.9V1.9C17 .85 16.15 0 15.1 0zM5.2 14.3H2.75V6.45H5.2V14.3zM3.97 5.4c-.78 0-1.42-.64-1.42-1.43 0-.78.64-1.42 1.42-1.42.79 0 1.43.64 1.43 1.42 0 .79-.64 1.43-1.43 1.43zM14.3 14.3h-2.44V10.1c0-1-.02-2.29-1.4-2.29-1.4 0-1.61 1.09-1.61 2.22v4.27H6.41V6.45h2.34v1.07h.03c.33-.62 1.12-1.27 2.31-1.27 2.47 0 2.92 1.63 2.92 3.74v4.31z" fill="#918b86"/>
</svg>
