<svg width="17" height="17" viewBox="0 0 17 17" fill="none" xmlns="http://www.w3.org/2000/svg">
  <path fill-rule="evenodd" clip-rule="evenodd" d="M8.5 0C3.805 0 0 3.84 0 8.58c0 3.79 2.438 7.005 5.82 8.14.426.08.581-.186.581-.414 0-.203-.007-.742-.011-1.456-2.368.52-2.868-1.15-2.868-1.15-.387-.992-0.945-1.255-.945-1.255-.773-.533.058-.522.058-.522.855.06 1.305.885 1.305.885.76 1.314 1.993.934 2.478.714.077-.555.297-.934.541-1.149-1.891-.217-3.88-.954-3.88-4.245 0-.938.332-1.705.877-2.305-.088-.217-.38-1.09.083-2.272 0 0 .715-.231 2.342.868.68-.191 1.408-.286 2.132-.29.723.004 1.451.099 2.132.29 1.626-1.099 2.34-.868 2.34-.868.464 1.182.172 2.055.084 2.272.546.6.876 1.367.876 2.305 0 3.3-1.993 4.025-3.89 4.238.305.265.578.79.578 1.592 0 1.15-.01 2.077-.01 2.36 0 .23.154.498.586.413C14.565 15.58 17 12.368 17 8.58 17 3.84 13.194 0 8.5 0z" fill="#918b86"/>
</svg>
