<svg preserveAspectRatio="none" width="100%" height="100%" overflow="visible" style="display: block;" viewBox="0 0 12 12" fill="none" xmlns="http://www.w3.org/2000/svg">
<g id="Icon">
<path id="Vector" d="M4 1.5H3.5C3.23478 1.5 2.98043 1.60536 2.79289 1.79289C2.60536 1.98043 2.5 2.23478 2.5 2.5V5C2.5 5.26522 2.39464 5.51957 2.20711 5.70711C2.01957 5.89464 1.76522 6 1.5 6C1.76522 6 2.01957 6.10536 2.20711 6.29289C2.39464 6.48043 2.5 6.73478 2.5 7V9.5C2.5 10.05 2.95 10.5 3.5 10.5H4" stroke="var(--stroke-0, white)" stroke-linecap="round" stroke-linejoin="round"/>
<path id="Vector_2" d="M8 10.5H8.5C8.76522 10.5 9.01957 10.3946 9.20711 10.2071C9.39464 10.0196 9.5 9.76522 9.5 9.5V7C9.5 6.45 9.95 6 10.5 6C10.2348 6 9.98043 5.89464 9.79289 5.70711C9.60536 5.51957 9.5 5.26522 9.5 5V2.5C9.5 2.23478 9.39464 1.98043 9.20711 1.79289C9.01957 1.60536 8.76522 1.5 8.5 1.5H8" stroke="var(--stroke-0, white)" stroke-linecap="round" stroke-linejoin="round"/>
</g>
</svg>
