<svg preserveAspectRatio="none" width="100%" height="100%" overflow="visible" style="display: block;" viewBox="0 0 14 14" fill="none" xmlns="http://www.w3.org/2000/svg">
<g id="Icon" clip-path="url(#clip0_0_17)">
<path id="Vector" d="M12.8333 7H11.3867C11.1317 6.99945 10.8836 7.08243 10.6803 7.23623C10.477 7.39003 10.3297 7.6062 10.2608 7.85167L8.89 12.7283C8.88116 12.7586 8.86274 12.7852 8.8375 12.8042C8.81226 12.8231 8.78155 12.8333 8.75 12.8333C8.71845 12.8333 8.68774 12.8231 8.6625 12.8042C8.63726 12.7852 8.61884 12.7586 8.61 12.7283L5.39 1.27167C5.38116 1.24138 5.36274 1.21477 5.3375 1.19583C5.31226 1.1769 5.28155 1.16667 5.25 1.16667C5.21845 1.16667 5.18774 1.1769 5.1625 1.19583C5.13726 1.21477 5.11884 1.24138 5.11 1.27167L3.73917 6.14833C3.6706 6.39284 3.52414 6.6083 3.322 6.76201C3.11987 6.91571 2.8731 6.99927 2.61917 7H1.16667" stroke="var(--stroke-0, white)" stroke-width="1.16667" stroke-linecap="round" stroke-linejoin="round"/>
</g>
<defs>
<clipPath id="clip0_0_17">
<rect width="14" height="14" fill="white"/>
</clipPath>
</defs>
</svg>
