<svg preserveAspectRatio="none" width="100%" height="100%" overflow="visible" style="display: block;" viewBox="0 0 14 14" fill="none" xmlns="http://www.w3.org/2000/svg">
<g id="Icon" clip-path="url(#clip0_0_7)">
<path id="Vector" d="M8.575 3.675C8.46812 3.78404 8.40825 3.93064 8.40825 4.08333C8.40825 4.23602 8.46812 4.38262 8.575 4.49167L9.50833 5.425C9.61737 5.53188 9.76398 5.59175 9.91667 5.59175C10.0694 5.59175 10.216 5.53188 10.325 5.425L12.1368 3.61375C12.3235 3.42592 12.6402 3.48542 12.7102 3.74092C12.8865 4.38193 12.8765 5.05987 12.6815 5.69543C12.4865 6.33098 12.1146 6.89786 11.6091 7.32972C11.1037 7.76159 10.4858 8.04057 9.82756 8.13404C9.16937 8.22751 8.49817 8.13158 7.8925 7.8575L3.27833 12.4717C3.04627 12.7037 2.73155 12.834 2.40342 12.8339C2.07528 12.8338 1.76061 12.7034 1.52863 12.4714C1.29664 12.2393 1.16634 11.9246 1.16639 11.5965C1.16645 11.2683 1.29685 10.9537 1.52892 10.7217L6.14308 6.1075C5.869 5.50183 5.77308 4.83063 5.86654 4.17244C5.96001 3.51424 6.239 2.89628 6.67086 2.39086C7.10272 1.88544 7.6696 1.51346 8.30515 1.31847C8.94071 1.12347 9.61866 1.11351 10.2597 1.28975C10.5152 1.35975 10.5747 1.67592 10.3874 1.86375L8.575 3.675Z" stroke="var(--stroke-0, white)" stroke-width="1.16667" stroke-linecap="round" stroke-linejoin="round"/>
</g>
<defs>
<clipPath id="clip0_0_7">
<rect width="14" height="14" fill="white"/>
</clipPath>
</defs>
</svg>
